<svg xmlns="http://www.w3.org/2000/svg"><symbol id="close-icon" viewBox="0 0 16.1 16.1"><path d="M16.1 13.7L10 8l5.7-6.1-2-1.9L8 6.1 1.9.4 0 2.4l6.1 5.7-5.7 6.2 2 1.8L8.1 10l6.2 5.7 1.8-2z"/></symbol><symbol id="heart-icon" viewBox="0 0 20.3 18.1"><path d="M20.3 5.6A5.7 5.7 0 0 0 14.7 0a5.8 5.8 0 0 0-4.6 2.3A5.4 5.4 0 0 0 5.6 0 5.6 5.6 0 0 0 0 5.6a5.4 5.4 0 0 0 1.8 4.1l8.4 8.4 8.5-8.5a5.8 5.8 0 0 0 1.6-4z"/></symbol><symbol id="instagram-icon" viewBox="0 0 16 16"><defs><clipPath id="a"><path fill="none" d="M0 0h16v16H0z"/></clipPath></defs><g clip-path="url(#a)"><path fill-rule="evenodd" d="M8 1.4h3.2a4 4 0 0 1 1.5.3 2.8 2.8 0 0 1 1.5 1.5 4 4 0 0 1 .3 1.5c0 .8.1 1.1.1 3.2s0 2.1-.1 3.2a4 4 0 0 1-.3 1.5 2.8 2.8 0 0 1-1.5 1.5 4 4 0 0 1-1.5.3H4.8a4 4 0 0 1-1.5-.3 2.8 2.8 0 0 1-1.5-1.5 4 4 0 0 1-.3-1.5c0-.8-.1-1.1-.1-3.2s0-2.1.1-3.2a4 4 0 0 1 .3-1.5 2.4 2.4 0 0 1 .6-.9 1.5 1.5 0 0 1 .9-.6 4 4 0 0 1 1.5-.3H8M8 0H4.7a5.8 5.8 0 0 0-1.9.4 3.8 3.8 0 0 0-1.5.9 3.8 3.8 0 0 0-.9 1.5 4 4 0 0 0-.3 1.9C0 5.8 0 6.9 0 8s0 2.2.1 3.3a5.8 5.8 0 0 0 .3 1.9 3.8 3.8 0 0 0 .9 1.5 3.8 3.8 0 0 0 1.5.9 5.8 5.8 0 0 0 1.9.3h6.6a5.8 5.8 0 0 0 1.9-.3 4.1 4.1 0 0 0 2.4-2.4 5.8 5.8 0 0 0 .3-1.9c0-.9.1-1.2.1-3.3s0-2.2-.1-3.3a5.8 5.8 0 0 0-.3-1.9 3.8 3.8 0 0 0-.9-1.5 3.8 3.8 0 0 0-1.5-.9 5.8 5.8 0 0 0-1.9-.3H8m0 3.8a4 4 0 0 0-4.1 4A4.1 4.1 0 0 0 8 12.1 4.1 4.1 0 0 0 12.1 8 4.1 4.1 0 0 0 8 3.9m0 6.8a2.8 2.8 0 0 1-2.7-2.6 2.8 2.8 0 0 1 2.6-2.8H8a2.8 2.8 0 0 1 2.7 2.6 2.8 2.8 0 0 1-2.6 2.7H8m4.3-7.9a.9.9 0 0 0-1 .9.9.9 0 0 0 1 1 .9.9 0 0 0 .9-1 .9.9 0 0 0-.9-.9"/></g></symbol><symbol id="left-arrow-icon" viewBox="0 0 19.9 20.5"><path d="M0 10.3l1.9-2L10.3 0l1.9 1.9-7 7 14.7.3v2.7l-14.7-.3 7 7-1.9 1.9-8.4-8.3L0 10.3z"/></symbol><symbol id="add-icon" viewBox="0 0 19.5 19.5"><path d="M19.5 8.4h-8.4V0H8.4v8.4H0v2.7h8.4v8.4h2.7v-8.4h8.4V8.4z"/></symbol><symbol id="cart-icon" viewBox="0 0 26.6 26.9"><path d="M3.9 20.7h17.6l2.3-17.6H0zm15.3-2.1H5.8l-3-13.4h18.1zM5.7 23.8h15.7v-2.1H5.7v2.1zM20.9 0h5.7v2.08h-5.7z"/><circle cx="7.3" cy="25.4" r="1.6"/><path d="M18.3 25.4a1.6 1.6 0 0 0 1.6 1.5 1.5 1.5 0 0 0 1.5-1.5 1.6 1.6 0 0 0-1.5-1.6 1.6 1.6 0 0 0-1.6 1.6z"/></symbol><symbol id="twitter-icon" viewBox="0 0 16 13"><defs><clipPath id="a"><path fill="none" d="M0 0h16v12.98H0z"/></clipPath></defs><g clip-path="url(#a)"><path fill-rule="evenodd" d="M5.1 13a9.3 9.3 0 0 0 9.3-9.2v-.6A6.5 6.5 0 0 0 16 1.5a5.9 5.9 0 0 1-1.9.5A3.5 3.5 0 0 0 15.6.3l-2.1.8A3.2 3.2 0 0 0 11.1 0a3.3 3.3 0 0 0-3.3 3.3 1.7 1.7 0 0 0 .1.7A8.9 8.9 0 0 1 1.2.5a3.4 3.4 0 0 0-.5 1.7A3.8 3.8 0 0 0 2.1 5a3 3 0 0 1-1.5-.5 3.1 3.1 0 0 0 2.7 3.2H1.8A3.2 3.2 0 0 0 4.9 10a6.3 6.3 0 0 1-4.1 1.5H0A9.1 9.1 0 0 0 5.1 13"/></g></symbol><symbol id="facebook-icon" viewBox="0 0 8.4 16"><defs><clipPath id="a"><path fill="none" d="M0 0h8.4v16H0z"/></clipPath></defs><g clip-path="url(#a)"><path fill-rule="evenodd" d="M5.4 16V8.7h2.5l.4-2.8H5.4V4.1c0-.8.3-1.4 1.4-1.4h1.6V.1H6.1a3.4 3.4 0 0 0-3.6 3.1v2.7H0v2.8h2.5V16z"/></g></symbol><symbol id="right-arrow-icon" viewBox="0 0 19.9 20.5"><path d="M19.9 10.3l-1.9-2L9.6 0 7.7 1.9l7 7L0 9.2l.1 2.7 14.6-.3-7 7 1.9 1.9 8.4-8.3 1.9-1.9z"/></symbol></svg>