<svg id="Layer_1" data-name="Layer 1" xmlns="http://www.w3.org/2000/svg" width="16" height="16" viewBox="0 0 16 16"><title>logo-16</title><path d="M-.1,0V16h16V0ZM1.8,14.9l.5-1.3H4.1l.5,1.3Zm.8-2.3L3,11.3l.2-.9h0l.2.9.4,1.3Zm4.8,2.3V12.4l.6.2,1.4,2.3Zm0-3.2V10H8l.7.2a.9.9,0,0,1,.3.6c0,.4-.1.6-.3.7a1.1,1.1,0,0,1-.8.3Zm3.3,3.2L9.3,12.6l-.4-.2a2.2,2.2,0,0,0,.9-.7,1.6,1.6,0,0,0,.4-1.2,2.4,2.4,0,0,0-.2-.8l-.5-.5L8.8,9H6.3v5.9H5.8l-2.1-6H2.8L1,13.9V1.1H14.7V9H10.5v1h1.7v4.9Zm2.7,0V10h1.3v4.9Z"/></svg>