<svg id="Layer_1" data-name="Layer 1" xmlns="http://www.w3.org/2000/svg" width="32" height="32" viewBox="0 0 32 32"><title>logo-32</title><path d="M0,0V32H32V0ZM3.9,29.7l.9-2.6H8.4l.9,2.6Zm1.5-4.4.8-2.6.4-1.9h.1L7,22.6l.9,2.7Zm9.7,4.4V24.9l1.2.2,2.6,4.6Zm0-6.4V19.9h1.2a2,2,0,0,1,1.4.5,1.5,1.5,0,0,1,.4,1.2,2,2,0,0,1-.5,1.4,2.5,2.5,0,0,1-1.6.4Zm6.5,6.4-2.7-4.5-.8-.5a3.2,3.2,0,0,0,1.8-1.3,3.9,3.9,0,0,0,.7-2.3,3.8,3.8,0,0,0-.4-1.6,2.4,2.4,0,0,0-1-1,3.4,3.4,0,0,0-1.5-.6H12.8V29.7h-1L7.5,17.9H5.8L2.3,27.8V2.3H29.7V18H21.2v2h3.5v9.7Zm5.4,0V20h2.7v9.7Z"/></svg>