<svg id="Layer_1" data-name="Layer 1" xmlns="http://www.w3.org/2000/svg" width="64" height="64" viewBox="0 0 64 64"><title>logo-64</title><path d="M0,0V64H64V0ZM7.8,59.4l1.8-5.2h7.2l1.9,5.2Zm3-8.9,1.7-5.2.7-3.7h.2l.7,3.7,1.7,5.2Zm19.3,8.9V49.8l2.5.4,5.3,9.2Zm0-12.7V39.8h2.5a4.1,4.1,0,0,1,2.7.8,3,3,0,0,1,1,2.4,3.4,3.4,0,0,1-1.2,2.9,4.5,4.5,0,0,1-3,.9ZM43.2,59.4l-5.4-8.9-1.6-1.1a7.2,7.2,0,0,0,3.6-2.5,7.7,7.7,0,0,0,1.3-4.7,6.1,6.1,0,0,0-.7-3.2,5.3,5.3,0,0,0-2.1-2.1,7.7,7.7,0,0,0-2.8-1,18.4,18.4,0,0,0-3.3-.3H29l-1.8.2-1.7.3V59.4h-2L15.1,35.8H11.7L4.6,55.6V4.6H59.4V35.9H42.5V40h6.8V59.4Zm10.7,0V40h5.5V59.4Z"/></svg>