<svg id="Layer_1" data-name="Layer 1" xmlns="http://www.w3.org/2000/svg" width="256" height="256" viewBox="0 0 256 256"><title>logo</title><path d="M0,0V256H256V0ZM31.3,237.7l7.1-20.9H67.3l7.5,20.9Zm11.8-35.6,6.8-20.8,2.9-14.9h.6l2.9,14.7,6.9,21Zm77.4,35.6V199.1l9.7,1.8,21.4,36.8Zm0-51.1V159.4a15.3,15.3,0,0,1,4.3-.5l5.5-.2c4.9,0,8.5,1.2,11,3.4s3.8,5.5,3.8,9.5-1.5,9.2-4.6,11.6-7.1,3.4-12.2,3.4Zm52.3,51.1-21.5-35.9-6.6-4.1a28.2,28.2,0,0,0,14.4-10.1c3.5-4.8,5.3-11.1,5.3-18.8a25.8,25.8,0,0,0-3-13,23,23,0,0,0-8-8.1,35.2,35.2,0,0,0-11.4-4.1,70.7,70.7,0,0,0-13-1.3l-6.2.2-6.9.4-7.1.7-6.7,1v93.1h-8L60.3,143H46.7L18.3,222.4V18.3H237.7V143.7H169.8v16.4h27.5v77.6Zm42.9,0V160.1h22v77.6Z"/></svg>